<svg id="Camada_1" data-name="Camada 1" xmlns="http://www.w3.org/2000/svg" viewBox="0 0 68.31 66.73"><title>logo vetor</title><path d="M4.47,33.93a25.86,25.86,0,0,1,.62-6.74,32.45,32.45,0,0,1,8.5-16.13A33.24,33.24,0,0,1,26.16,2.73,35,35,0,0,1,35.53.6a34.12,34.12,0,0,1,26.58,9,31.36,31.36,0,0,1,10,17.84,32,32,0,0,1-7.91,28.4A33.38,33.38,0,0,1,44.76,66.63a33.19,33.19,0,0,1-9.38.42A34.06,34.06,0,0,1,15,57.94,32,32,0,0,1,5.68,42.8a28.69,28.69,0,0,1-1.21-7C4.46,35.17,4.47,34.55,4.47,33.93Zm67.7.26a26.07,26.07,0,0,0-1-8.49A32.08,32.08,0,0,0,60.45,8.85,33.78,33.78,0,0,0,44.57,1.47,29.12,29.12,0,0,0,38.47.9a43.38,43.38,0,0,0-4.7.4A32.35,32.35,0,0,0,22.72,4.83,32.76,32.76,0,0,0,7,22.49,29.19,29.19,0,0,0,5,34.05a41.47,41.47,0,0,0,.32,4.59,32.66,32.66,0,0,0,2.12,7.65,31.9,31.9,0,0,0,7.25,10.64,33.34,33.34,0,0,0,17.78,9.2,33.94,33.94,0,0,0,10.06.33,34.64,34.64,0,0,0,7.19-1.61,33,33,0,0,0,14.36-9.57A31.27,31.27,0,0,0,72.17,34.19Z" transform="translate(-4.44 -0.48)"/><path d="M38.92,57.26a18.77,18.77,0,0,1-6.48-.75,22.41,22.41,0,0,1-10.37-5.76,22.26,22.26,0,0,1-6.85-12.6A22.75,22.75,0,0,1,21,18a23.21,23.21,0,0,1,13.46-7.36,22,22,0,0,1,4.2-.38A26.17,26.17,0,0,1,45,11.2a23.35,23.35,0,0,1,10.5,6.14A22.52,22.52,0,0,1,62.16,31a22.8,22.8,0,0,1-6,18.62,23,23,0,0,1-14.5,7.52c-.5.07-1,.1-1.52.12S39.18,57.26,38.92,57.26Zm23-23.61c-.07-.84-.15-2-.27-3.07a15.64,15.64,0,0,0-.33-1.79,23.26,23.26,0,0,0-45.66,8.77,22,22,0,0,0,6.89,12.9,22.66,22.66,0,0,0,19.05,6.16A22.54,22.54,0,0,0,55.78,49.3,23,23,0,0,0,61.88,33.65Z" transform="translate(-4.44 -0.48)"/><path d="M12.45,39.37,13,37.64a1.46,1.46,0,0,1,.39,1.5,10.08,10.08,0,0,0-.44,2.45A2.3,2.3,0,0,1,11,43.54a2.69,2.69,0,0,1-2.63-.7,2.56,2.56,0,0,1-.51-2.57,2.22,2.22,0,0,1,1.8-1.55,2.52,2.52,0,0,1,2.42.52.62.62,0,0,0,.19.12ZM10,42.74a2.78,2.78,0,0,0,2-.92,1.28,1.28,0,0,0,.06-1.74,1.42,1.42,0,0,0-1.63-.6l-.65.2a2.54,2.54,0,0,0-1.35,1,1.25,1.25,0,0,0,0,1.34C8.74,42.62,9.29,42.72,10,42.74Z" transform="translate(-4.44 -0.48)"/><path d="M40.09,4V5.54c0,.26,0,.53,0,.8s0,.48.3.56c.08,0,.13.18.24.33A2.81,2.81,0,0,1,38.55,7a1.19,1.19,0,0,0,.9-1.28c0-.8.11-1.59.15-2.39a.63.63,0,0,0-.46-.67c-.08,0-.19-.18-.17-.22a.34.34,0,0,1,.24-.2,1.17,1.17,0,0,1,1.19.43l2,2.71a7.18,7.18,0,0,0,.52.61A23.31,23.31,0,0,0,43,3.53c0-.27-.31-.52-.51-.84a1.09,1.09,0,0,1,.36-.09A11.31,11.31,0,0,1,44,2.67a.76.76,0,0,1,.29.16c-.06.1-.11.27-.19.28-.44.06-.47.37-.5.72-.11,1.12-.24,2.25-.38,3.37,0,.14-.14.27-.21.41a1.63,1.63,0,0,1-.38-.3c-.6-.86-1.19-1.73-1.8-2.6-.19-.27-.4-.54-.61-.81Z" transform="translate(-4.44 -0.48)"/><path d="M54.67,12.35a2.3,2.3,0,0,1,.45.12.38.38,0,0,0,.53-.1c.72-.74,1.44-1.47,2.17-2.2A.54.54,0,0,0,58,9.52a.85.85,0,0,1,0-.35c.12,0,.28,0,.35.05a21.48,21.48,0,0,1,1.88,1.94,2.16,2.16,0,0,1-.73,3.39,2.26,2.26,0,0,1-2.34.14,7.74,7.74,0,0,1-2.34-1.91,1.69,1.69,0,0,1-.19-.32Zm5.26-.25A2,2,0,0,0,59,10.63a.62.62,0,0,0-.53.08c-.71.69-1.39,1.41-2.07,2.12a.56.56,0,0,0,0,.77,1.57,1.57,0,0,0,2,.5l.66-.38A2,2,0,0,0,59.93,12.1Z" transform="translate(-4.44 -0.48)"/><path d="M66.22,30.78c.89-.16,1.69-.29,2.48-.45.4-.08.46-.42.49-.78.31-.05.38.15.41.37.06.38.13.77.16,1.16,0,.12-.09.24-.15.41a2.91,2.91,0,0,1-.2-.23c-.32-.43-.5-.46-1-.36-1.23.24-2.46.44-3.7.65l-.09-.12a4.84,4.84,0,0,1,.47-.79c.81-.94,1.64-1.86,2.46-2.89-.41,0-.82.05-1.21.12s-.79.19-1.19.26-.41.13-.43.42c0,.1-.13.18-.2.27-.07-.08-.18-.16-.2-.25a9,9,0,0,1-.24-1.15c0-.1.11-.22.17-.33a1,1,0,0,1,.28.2c.29.41.71.27,1.08.22.74-.11,1.48-.29,2.23-.41.39-.06.64-.2.68-.63,0-.1.13-.19.2-.28a1.55,1.55,0,0,1,.24.28,1.22,1.22,0,0,1-.31,1.47c-.77.83-1.48,1.7-2.22,2.56C66.36,30.56,66.33,30.62,66.22,30.78Z" transform="translate(-4.44 -0.48)"/><path d="M14.39,45.35c.13,0,.32,0,.37.14.28.47.53.95.77,1.44,0,.07-.08.21-.15.37a.92.92,0,0,0-1.3-.13c-.71.38-1.44.74-2.18,1.07-.34.15-.56.32-.52.72a1.64,1.64,0,0,1-.06.36c-.13-.09-.26-.14-.3-.23-.33-.67-.68-1.33-1-2a1.18,1.18,0,0,1,.2-1.39,1.33,1.33,0,0,1,1.52-.27.49.49,0,0,0,.75-.26c.3-.62.58-1.24.86-1.86a1.07,1.07,0,0,0,.07-.15.64.64,0,0,1,.46.71,3.16,3.16,0,0,1-.23,1c-.14.35-.41.64-.58,1a4,4,0,0,0-.17.72l.16.12L14.48,46l-.14-.5ZM11,47.77c.46-.24.89-.45,1.31-.68s.35-.36.11-.64a.87.87,0,0,0-1.27-.2c-.58.41-.64.67-.3,1.27Z" transform="translate(-4.44 -0.48)"/><path d="M16.07,11.54l1.35-1.32.13.06c0,.13.07.29,0,.38a.44.44,0,0,0,.09.58c.56.57,1.13,1.13,1.7,1.69l1.32,1.29a2.4,2.4,0,0,1-.53.12l-2.09-.14-2.15-.12c.56.61,1.07,1.18,1.61,1.72.1.1.34.07.51.08s.37,0,.55,0l.06.11-1.29,1.34-.15-.08a2.94,2.94,0,0,0,.05-.51.75.75,0,0,0-.11-.48c-.76-.75-1.53-1.49-2.32-2.21a.69.69,0,0,0-.44-.07,2.64,2.64,0,0,0-.52.13c0-.61.38-1,.93-.94,1,.05,2,.14,3,.2A3.78,3.78,0,0,0,19,13.32c-.63-.58-1.24-1.17-1.88-1.74-.08-.07-.28,0-.42,0a4.1,4.1,0,0,0-.5.14Z" transform="translate(-4.44 -0.48)"/><path d="M68.87,41.22a2.46,2.46,0,0,1-2.54,2.49,2.61,2.61,0,0,1-2.71-2.56,2.51,2.51,0,0,1,2.49-2.54A2.66,2.66,0,0,1,68.87,41.22Zm-2.23,1.5.44,0a1.34,1.34,0,0,0,1.24-1.06,1.32,1.32,0,0,0-.56-1.46,3,3,0,0,0-2.39-.52,1.5,1.5,0,0,0-1.23,1.16c-.19.56.18.94.54,1.29A2.85,2.85,0,0,0,66.64,42.72Z" transform="translate(-4.44 -0.48)"/><path d="M32.69,5.05a2.53,2.53,0,0,1,2.46-2.61A2.5,2.5,0,0,1,37.74,5a2.53,2.53,0,1,1-5.05,0Zm4.06.27a2.19,2.19,0,0,0-1-2.15,1.37,1.37,0,0,0-2,.74,2.92,2.92,0,0,0,.46,2.57,1.5,1.5,0,0,0,1.62.57,1.33,1.33,0,0,0,1-1.31C36.75,5.6,36.75,5.46,36.75,5.32Z" transform="translate(-4.44 -0.48)"/><path d="M12.45,23A2.62,2.62,0,0,1,9.72,20.5a2.44,2.44,0,0,1,2.48-2.61,2.71,2.71,0,0,1,2.74,2.56A2.43,2.43,0,0,1,12.45,23Zm.39-.83a6.5,6.5,0,0,0,.86-.25c.48-.22.89-1,.74-1.34a3.22,3.22,0,0,0-1.68-1.63A1.87,1.87,0,0,0,11,19a1.33,1.33,0,0,0-.53,1.92A3,3,0,0,0,12.84,22.15Z" transform="translate(-4.44 -0.48)"/><path d="M67.19,35.73c0,.67.13,1.34-.28,2-.56-.76-1.5-.34-2.21-.78,0-.54,0-1.12,0-1.71a2.52,2.52,0,0,1,3.07-2.37,2.3,2.3,0,0,1,2.07,2.44,13.29,13.29,0,0,1-.19,1.77c-.06.4-.45.35-.73.39a.59.59,0,0,1-.67-.36,1.43,1.43,0,0,0,1.16-1.43,1.82,1.82,0,0,0-1.63-1.89,2.13,2.13,0,0,0-2.59,1.62c0,.28.06.73.23.81a2.85,2.85,0,0,0,1.14.11s.12-.18.14-.28C66.75,35.75,66.89,35.65,67.19,35.73Z" transform="translate(-4.44 -0.48)"/><path d="M62.92,13.75c.56.8,1.14,1.59,1.68,2.4a.6.6,0,0,1,.05.53,1.73,1.73,0,0,1-.74.48c-.21.06-.2-.16-.12-.31a1.11,1.11,0,0,0-.4-1.52.29.29,0,0,0-.24,0c-.29.17-.58.35-.87.55a.38.38,0,0,0-.09.59.91.91,0,0,0,1.06.5c-.13.69-.81.7-1.06,1.11-.29-.11-.36-.24-.24-.51.23-.5-.25-.74-.43-1.16l-1.47,1.08a4.45,4.45,0,0,0,.79,1,3.69,3.69,0,0,0,1.14.32.85.85,0,0,1-1.54.11c-.44-.64-.89-1.27-1.34-1.9a1,1,0,0,1-.17-.25,3.11,3.11,0,0,1-.08-.44,1.19,1.19,0,0,1,.44.13.4.4,0,0,0,.57,0c.81-.58,1.64-1.14,2.47-1.71.23-.16.44-.33.33-.69,0-.1.08-.25.13-.37Z" transform="translate(-4.44 -0.48)"/><path d="M7,37.8c0-.72-.38-1.43-.07-2.23.09.08.14.1.15.14.18.59.61.7,1.17.61s1.26-.14,1.89-.22a1.13,1.13,0,0,0,1-1.34,1,1,0,0,0-1.14-1H7.9a.69.69,0,0,0-.77.55.89.89,0,0,1-.33.38,10.74,10.74,0,0,1-.11-2l.16,0c.3.59.77.65,1.38.58a12.25,12.25,0,0,1,2,0A1.77,1.77,0,0,1,11.85,35c-.06,1.31-.5,1.86-1.8,2-.67.06-1.34.08-2,.15-.31,0-.67.08-.73.53,0,.07-.13.13-.2.19Z" transform="translate(-4.44 -0.48)"/><path d="M49.05,8.92a.56.56,0,0,1-.73.18c-.46-.2-.93-.37-1.4-.54l0-.12a2,2,0,0,0,.4-.24.62.62,0,0,0,.23-.37c0-.84-.31-1.18-1.17-1.15a.88.88,0,0,0-.8.7c0,.1.07.22.1.33s.07.25.1.37-.23.06-.33,0C45,8,44.55,7.77,44,7.57c.14-.11.2-.19.27-.2a1.68,1.68,0,0,0,1.14-.74L47.5,4.2a2,2,0,0,1,.32-.33c.23-.17.45-.07.46.21.07,1.28.13,2.56.17,3.84C48.47,8.36,48.52,8.76,49.05,8.92ZM47.52,5.1l-.09,0-.79,1,.88.28Z" transform="translate(-4.44 -0.48)"/><path d="M23.46,11.62l0-.58-.95-.68c-.3.22-.6.43-.87.67s-.08.67,0,1,.27.28.51.26a1.77,1.77,0,0,1,.47.12L20.93,13.6A1.88,1.88,0,0,1,21,13a1.2,1.2,0,0,0,.08-1c-.3-1.19-.59-2.38-.87-3.58a2.35,2.35,0,0,1,0-.53,2,2,0,0,1,.62.15c1,.67,2,1.37,3,2.05.27.19.53.5.94.23,0,0,.19.06.22.13a.28.28,0,0,1,0,.27l-1.39.94Zm-2.21-1.06.82-.55-1-.7-.11.11Z" transform="translate(-4.44 -0.48)"/><path d="M58.07,51.51c0-.86.63-1.22,1-1.85a5.52,5.52,0,0,0,.21.55.62.62,0,0,0,.22.3,1.05,1.05,0,0,0,1.59-.72.89.89,0,0,0-.89-1,3.85,3.85,0,0,1-.54,0l1.1-1.53c.24.14.37.28.22.56a.5.5,0,0,0,0,.41c.69,1.09,1.41,2.17,2.1,3.27a5.21,5.21,0,0,1,.32.89c-.26,0-.37,0-.49-.07l-3-.85A2.78,2.78,0,0,0,58.07,51.51Zm3-.53c.37.1.67.19,1,.26a.27.27,0,0,0,.19-.05.19.19,0,0,0,0-.16l-.7-.9Z" transform="translate(-4.44 -0.48)"/><path d="M17.2,49.3c-.94,0-1.5.33-1.22,1.23s.69.87,1.76.44l-.15-.62c.2,0,.39,0,.48.14.32.34.62.72.92,1.09l-.06.12-.48,0a2,2,0,0,0-.69,0c-1.27.35-2.53.74-3.79,1.11a2,2,0,0,1-.54,0,1.64,1.64,0,0,1,.1-.6c.64-1,1.31-2.06,2-3.08a1,1,0,0,0,.21-1c0-.08,0-.18.06-.27s.26,0,.33.11C16.45,48.33,16.77,48.76,17.2,49.3Zm-2.48,2.54.09.09.74-.21c.39-.13.43-.3.15-.62a4,4,0,0,0-.29-.28Z" transform="translate(-4.44 -0.48)"/><path d="M63.4,24.54c.75.58,1-.07,1.43-.35l0,0c.12-.19-.41-1.26-.64-1.27h-1l-.14.59c-.37,0-.82-1-.79-1.7.15.07.31.09.39.19a.93.93,0,0,0,.78.3c1.3,0,2.6,0,3.89,0a1.54,1.54,0,0,1,.43.14c-.07.19-.09.43-.22.55-1,.85-1.94,1.68-2.91,2.52a.82.82,0,0,0-.3,1c-.21-.1-.45-.13-.5-.23A4.28,4.28,0,0,1,63.4,24.54Zm1.68-1.81a2.34,2.34,0,0,0,.17.65c.06.09.31.18.37.13a7,7,0,0,0,.77-.67l-.06-.11Z" transform="translate(-4.44 -0.48)"/><path d="M28.06,5.22c-.2.24-.4.24-.58,0-.55-.6-1.14-.46-1.82.07a1.66,1.66,0,0,0-.52,2,4.73,4.73,0,0,0,.61,1A1.61,1.61,0,0,0,27.46,9a1.53,1.53,0,0,0,1.22-1.26q0-.2.09-.42c.27-.09.39,0,.41.3a1.32,1.32,0,0,1-1,1.62,3,3,0,0,1-2.08.35,2.39,2.39,0,0,1-1.84-2.36A2.69,2.69,0,0,1,26.52,4.4c1.08-.28.94-.19,1.44.63Z" transform="translate(-4.44 -0.48)"/><path d="M7.23,27.72a2.21,2.21,0,0,1,0-.52c.11-.4.25-.79.39-1.19,0-.08.14-.2.18-.19s.23.12.23.2c0,.39.24.38.55.35.71-.09,1.42-.13,2.12-.2l.56-.06a3.75,3.75,0,0,0-.48-.49c-.46-.36-.93-.71-1.4-1.05s-.54-.39-1.1.08a1.43,1.43,0,0,1-.08-.5,8.07,8.07,0,0,1,.33-1.09c0-.08.16-.17.21-.15s.2.13.2.21a.92.92,0,0,0,.48.77c1,.76,1.94,1.52,2.9,2.29a3.28,3.28,0,0,1,.49.56l-.07.12c-.84.05-1.69.09-2.53.16a17.65,17.65,0,0,0-1.92.23A5.84,5.84,0,0,0,7.23,27.72Z" transform="translate(-4.44 -0.48)"/><path d="M52.4,11.3,49.25,9.63l0-.13a.89.89,0,0,1,.31-.06c.4.1.58-.12.74-.43.4-.76.8-1.53,1.23-2.28a1.1,1.1,0,0,0,.1-1,1.6,1.6,0,0,1-.07-.33c1,.21,1.75.72,1.74,1.15-.53-.22-.75.09-1,.5-.4.8-.83,1.57-1.24,2.36-.25.46-.23.5.21.78a1,1,0,0,1,.17.1.75.75,0,0,0,1,0,2,2,0,0,1,.54-.19C53.17,10.74,52.65,10.92,52.4,11.3Z" transform="translate(-4.44 -0.48)"/><path d="M67.23,45.79c-.28.53-.56,1.07-.87,1.59-.06.1-.26.12-.44.13.31-.55-.08-.75-.4-.92-.87-.47-1.76-.91-2.65-1.35a.46.46,0,0,0-.38,0,1.19,1.19,0,0,0-.37,1.52,4.12,4.12,0,0,1,.22.47,1.53,1.53,0,0,1-1.15-.65.37.37,0,0,1,.06-.24c.43-.83.86-1.67,1.31-2.49.07-.12.24-.18.36-.27A2,2,0,0,0,63,44c.07.18.13.41.27.49,1,.53,1.93,1,2.91,1.51a.72.72,0,0,0,.43,0,4.08,4.08,0,0,0,.54-.22Z" transform="translate(-4.44 -0.48)"/><path d="M29,3.79a4.36,4.36,0,0,1,1.86-.65c.08,0,.21.11.31.17s-.05.12-.07.13c-.45.23-.48.56-.33,1,.25.79.42,1.59.63,2.39.09.36.21.69.69.65.07,0,.2.12.21.2s-.1.19-.18.22a13,13,0,0,1-1.34.43c-.14,0-.31-.07-.47-.11.08-.12.18-.22.25-.34s.2-.32.17-.45c-.26-1-.53-2-.84-3-.07-.19-.35-.32-.55-.46A1,1,0,0,0,29,3.93Z" transform="translate(-4.44 -0.48)"/><path d="M7.32,29.26a1.48,1.48,0,0,1,.28.35.41.41,0,0,0,.45.31c.94.08,1.87.15,2.81.27.38,0,.66,0,.85-.36a2.75,2.75,0,0,1,.27-.29,5.7,5.7,0,0,1,.06.58,9.25,9.25,0,0,1,0,1.18c0,.13-.13.25-.2.37a2.89,2.89,0,0,0-.24-.25,1.17,1.17,0,0,0-.39-.28,11.68,11.68,0,0,0-3.44-.31c-.11,0-.23.11-.34.18l-.3.22c0-.12-.15-.25-.14-.36.06-.52.15-1,.23-1.54Z" transform="translate(-4.44 -0.48)"/><path d="M19.38,54.61a.66.66,0,0,1-1.32,0,.82.82,0,0,1,.67-.64A.82.82,0,0,1,19.38,54.61Z" transform="translate(-4.44 -0.48)"/><path d="M53.74,58.74a.62.62,0,0,1-.59-.67.6.6,0,0,1,.63-.61.63.63,0,0,1,.58.64A.64.64,0,0,1,53.74,58.74Z" transform="translate(-4.44 -0.48)"/><path d="M28.44,60.27a.76.76,0,0,1-.63.65.81.81,0,0,1-.64-.65.67.67,0,0,1,.63-.63A.71.71,0,0,1,28.44,60.27Z" transform="translate(-4.44 -0.48)"/><path d="M43.84,61.41a.69.69,0,0,1,.63.64.87.87,0,0,1-.63.63c-.23,0-.68-.43-.67-.65A.72.72,0,0,1,43.84,61.41Z" transform="translate(-4.44 -0.48)"/><path d="M23.61,58a.59.59,0,0,1-.62.59.63.63,0,0,1-.66-.59.63.63,0,0,1,.66-.59A.6.6,0,0,1,23.61,58Z" transform="translate(-4.44 -0.48)"/><path d="M58.06,55.26c-.4,0-.65-.22-.65-.55a.68.68,0,0,1,.67-.6.65.65,0,0,1,.64.62C58.71,55.06,58.46,55.26,58.06,55.26Z" transform="translate(-4.44 -0.48)"/><path d="M48.49,60.54a.58.58,0,0,1,.51-.63.82.82,0,0,1,.64.66.58.58,0,0,1-.59.61C48.67,61.19,48.49,61,48.49,60.54Z" transform="translate(-4.44 -0.48)"/><path d="M38.69,63.19a.58.58,0,0,1-.64-.59.64.64,0,0,1,.66-.6c.23,0,.66.4.66.61S39,63.19,38.69,63.19Z" transform="translate(-4.44 -0.48)"/><path d="M32.88,62.5c-.43,0-.62-.15-.63-.52a.63.63,0,0,1,.64-.62.5.5,0,0,1,.56.52C33.46,62.37,33.34,62.5,32.88,62.5Z" transform="translate(-4.44 -0.48)"/><path d="M23,26.57a4.06,4.06,0,0,1,.78,0,10.34,10.34,0,0,1,3.49,1.24,4,4,0,0,0,2,.56c.48-1,.31-1.43-.53-2.06-1.15-.87-2.23-1.81-3.33-2.73a.59.59,0,0,1-.22-.3.62.62,0,0,1,0-.46.63.63,0,0,1,.43-.12,6.14,6.14,0,0,1,3,1.32c.4.25.74.59,1.12.85a1.37,1.37,0,0,0,.65.27.64.64,0,0,0,.69-.37.66.66,0,0,0-.16-.77L28,21c-.09-.09-.22-.17-.26-.28a1,1,0,0,1-.05-.53c0-.07.33-.11.47-.06a7.67,7.67,0,0,1,3.51,2.26,1.48,1.48,0,0,0,2,.5c.39-.22.41-.39.16-.75-.86-1.2-1.73-2.39-2.55-3.61a7.82,7.82,0,0,1-.55-1.29.45.45,0,0,1,.16-.63.56.56,0,0,1,.76.08A10.34,10.34,0,0,1,32.81,18c.71,1,1.36,2.11,2,3.16a6.31,6.31,0,0,0,.66.88c.42.43.82.34,1-.22s.24-1,.45-1.5c.74-1.69,1.24-3.52,2.64-4.86a.85.85,0,0,1,.87-.24.48.48,0,0,1,.3.7c-.35.7-.72,1.39-1.1,2.08a5.46,5.46,0,0,0-1,2.46A6.77,6.77,0,0,0,38.77,22c0,.16.3.34.49.38a.7.7,0,0,0,.57-.15,2.77,2.77,0,0,0,.44-.79c.28-.6.55-1.22.82-1.83a1.68,1.68,0,0,0,.15-.3,2.46,2.46,0,0,1,1.41-1.56,1.16,1.16,0,0,1,.82,0c.3.1.32.43.24.69a5.18,5.18,0,0,1-.45,1c-.41.67-.87,1.31-1.28,2a1.63,1.63,0,0,0-.19.66,1.37,1.37,0,0,0,1.35,1.73.46.46,0,0,0,.52-.35c.15-.38.26-.77.41-1.15a11,11,0,0,1,.63-1.5,2.73,2.73,0,0,1,.78-.81.68.68,0,0,1,.62,0,.67.67,0,0,1,.21.56A8.36,8.36,0,0,1,46,21.73c-.21.73-.44,1.45-.67,2.17-.08.27-.2.52-.29.79a1.12,1.12,0,0,0,.3,1.22c.27.3.54.24.73-.11a5.66,5.66,0,0,1,.44-.89,19.56,19.56,0,0,1,1.5-1.9c.44-.49,1.08-.23,1.21.42A1.84,1.84,0,0,1,49,24.71c-.6,1-1.2,2-1.81,3-.14.23-.25.43,0,.65a.53.53,0,0,0,.75,0c.66-.54,1.3-1.11,2-1.59a8.22,8.22,0,0,1,3.14-1.39,5.45,5.45,0,0,1,1.14-.06.67.67,0,0,1,.54,1.11,3.87,3.87,0,0,1-1.13.92c-.77.42-1.62.68-2.38,1.12A16.66,16.66,0,0,0,49,30a2.3,2.3,0,0,0-.9,1.85,1.26,1.26,0,0,0,0,.27s0,.08,0,.09c1-.41,1.9-.83,2.84-1.22a3,3,0,0,1,2-.2,3.12,3.12,0,0,1,.39.15.73.73,0,0,1,.45.77.68.68,0,0,1-.54.61c-.94.28-1.86.59-2.81.84a4.15,4.15,0,0,0-2,1.37c-.44.48-.22,1.09-.14,1.65,0,0,.16.1.25.13,1,.28,1.93.53,2.88.84a2.67,2.67,0,0,1,.9.54c.16.15.35.51.28.63a1,1,0,0,1-.68.45,6.12,6.12,0,0,1-1.71,0,9.62,9.62,0,0,1-1.79-.59c-.45-.18-.54-.19-.76.22a1.56,1.56,0,0,0,.55,2.27c1.29.81,2.6,1.58,3.91,2.35a1.52,1.52,0,0,1,.75,1c.07.32-.08.55-.4.55a2.57,2.57,0,0,1-1-.17c-1.09-.51-2.17-1.05-3.22-1.63a15.37,15.37,0,0,1-1.3-1c-.5-.35-.75-.31-1.15.15a5.58,5.58,0,0,0-.55.73c-.19.31-.1.55.18.79,1.37,1.17,2.73,2.35,4.1,3.54a.63.63,0,0,1,.23.33,1,1,0,0,1,0,.61c0,.1-.34.12-.51.09a5.57,5.57,0,0,1-2.33-1.16L44,44.58c-.55-.45-.73-.44-1.31,0-.89.66-1,.88-.32,1.8.51.74,1.11,1.43,1.65,2.14a11.94,11.94,0,0,1,.71,1,1.24,1.24,0,0,1-.08,1.4c0,.06-.19.12-.25.09a2.73,2.73,0,0,1-.91-.49c-.64-.74-1.24-1.51-1.81-2.31a3.2,3.2,0,0,1-.44-1A1.6,1.6,0,0,0,39,46.08a.5.5,0,0,0-.34.63c.27,1.41.54,2.8.77,4.21a1.57,1.57,0,0,1-.12.91.59.59,0,0,1-1.07,0,4.14,4.14,0,0,1-.52-1.65c-.17-1.23-.42-2.44-.67-3.66a1,1,0,0,0-.72-.72.85.85,0,0,0-1.16.36L33.1,48.94a1.49,1.49,0,0,1-1.47.65c0-.22,0-.44.09-.65a1.43,1.43,0,0,1,.17-.38c.59-1.05,1.17-2.1,1.77-3.14a.72.72,0,0,0-.15-1,.67.67,0,0,0-.94,0c-.48.48-.91,1-1.36,1.54s-.87,1-1.33,1.52a5.87,5.87,0,0,1-.86.62,2,2,0,0,1,0-.53,5.21,5.21,0,0,1,1.28-2.39,4.67,4.67,0,0,0,.57-1c.2-.34.42-.66.62-1s.1-.66-.4-1.05c-.28-.21-.52-.19-.79.14-.43.54-.85,1.11-1.27,1.67a2.69,2.69,0,0,1-1.36,1.11c-.15,0-.41.07-.45,0a.76.76,0,0,1-.1-.56,7.62,7.62,0,0,1,.71-1.43c.43-.62.93-1.2,1.42-1.79a1.7,1.7,0,0,0,.34-1.67c-.18-.63-.71-.74-1.15-.26s-1.1,1.23-1.69,1.8a2.18,2.18,0,0,1-.83.49c-.3.1-.43-.09-.3-.39a2.07,2.07,0,0,1,.19-.32c.78-1.07,1.55-2.15,2.35-3.2A1.73,1.73,0,0,0,28.38,36c-.13-.33-.32-.41-.58-.18a18.71,18.71,0,0,0-2.66,2.38,2.52,2.52,0,0,1-.91.65.57.57,0,0,1-.52-.07c-.09-.07-.09-.34,0-.48A3.83,3.83,0,0,1,25,36.67c.72-.54,1.47-1.05,2.14-1.64a7.24,7.24,0,0,0,1.12-1.34c.22-.29,0-.74-.47-.81-.84-.14-1.68-.23-2.53-.3-.49,0-1,0-1.48,0a4.82,4.82,0,0,1-1.31-.31,1.06,1.06,0,0,1-.43-.57c-.12-.29,0-.49.34-.59a8.61,8.61,0,0,1,3-.23c.43,0,.86.05,1.29,0a1.47,1.47,0,0,0,.63-.11.89.89,0,0,0,.44-.46.62.62,0,0,0-.3-.5c-.68-.41-1.39-.78-2.09-1.15a13.82,13.82,0,0,1-1.69-.94,4.84,4.84,0,0,1-.79-1Zm23.64,8.92-.11,0A18.77,18.77,0,0,0,46,31.05a10.53,10.53,0,0,0-.7-2,19.09,19.09,0,0,0-1.27-2,1.23,1.23,0,0,0-.29-.35c-.86-.68-1.74-1.35-2.61-2a.54.54,0,0,0-.13-.07A7.77,7.77,0,0,0,37,24a4.68,4.68,0,0,0-2.75,1.15,6.48,6.48,0,0,1-1.12.8,4.4,4.4,0,0,0-1.72,1.88c-.38.82-.72,1.65-1.07,2.48a3.13,3.13,0,0,0-.3.78c-.09,1-.14,1.95-.2,2.92,0,.32-.07.66.27.89.1.07.12.27.16.42s.08.42.15.62c.36.91.74,1.81,1.08,2.72a9.9,9.9,0,0,0,3.41,4.58,3.31,3.31,0,0,0,2,.76c.22,0,.43,0,.65,0a6,6,0,0,0,3.23-.51,7.43,7.43,0,0,0,3-2.21,6,6,0,0,1,.55-.58,9.67,9.67,0,0,0,1.84-3A11.26,11.26,0,0,0,46.64,35.49Z" transform="translate(-4.44 -0.48)"/><path d="M38.72,25a2.54,2.54,0,0,1,2.29.93c.55.55,1.09,1.1,1.61,1.67a5.52,5.52,0,0,1,1.22,3c.09.6.24,1.2.29,1.8a9.91,9.91,0,0,1-.06,1.44,11.74,11.74,0,0,1-1.3,4.82,11.93,11.93,0,0,1-1.26,1.75,2.19,2.19,0,0,1-1.59.73c-.8,0-1.61.2-2.42.17a3.31,3.31,0,0,1-2.72-1.46A13.15,13.15,0,0,1,32.52,35a13.47,13.47,0,0,1-.24-2.53,21.8,21.8,0,0,1,.28-3.13,3.55,3.55,0,0,1,1.13-1.94,6.84,6.84,0,0,1,1.82-1.53A6.43,6.43,0,0,1,38.72,25ZM38,40.17a5.46,5.46,0,0,0,.57,0,3.81,3.81,0,0,0,2.72-1.35c.33-.47.59-1,.89-1.5.07-.11.18-.21.26-.32a1.35,1.35,0,0,0,.25-.45c.12-.78.21-1.57.29-2.35A7.05,7.05,0,0,0,42.39,30,6.18,6.18,0,0,0,40,27.29a4.09,4.09,0,0,0-3.87-.06,3.36,3.36,0,0,0-2,2.19,12.63,12.63,0,0,0-.48,4,11.89,11.89,0,0,0,.83,3.37,17.81,17.81,0,0,0,.81,1.71.87.87,0,0,0,.17.21c.29.28.61.54.88.84A1.84,1.84,0,0,0,38,40.17Z" transform="translate(-4.44 -0.48)"/><path d="M38.9,30.17l.68,0A1.64,1.64,0,0,1,41,31.61a9.82,9.82,0,0,1,0,4,3.85,3.85,0,0,1-2,2.57,1.72,1.72,0,0,1-2.14-.57,5.86,5.86,0,0,1-1.16-3.07,12.29,12.29,0,0,1,0-2.1,2.13,2.13,0,0,1,1-1.6A3.58,3.58,0,0,1,38.9,30.17Zm.91,3.59a4.87,4.87,0,0,1,0-.54A1.14,1.14,0,0,0,39.1,32a1.17,1.17,0,0,0-1.39.11A2.3,2.3,0,0,0,37,33.21c-.12.42-.43.9-.07,1.38.08.1,0,.3,0,.45a.82.82,0,0,0,.08.35,9.08,9.08,0,0,0,.57.81,1,1,0,0,0,1.72-.11A3.82,3.82,0,0,0,39.81,33.76Z" transform="translate(-4.44 -0.48)"/></svg>